<?xml version="1.0" encoding="utf-8" standalone="no"?>
<!DOCTYPE svg PUBLIC "-//W3C//DTD SVG 1.1//EN"
  "http://www.w3.org/Graphics/SVG/1.1/DTD/svg11.dtd">
<!-- Created with matplotlib (https://matplotlib.org/) -->
<svg height="432pt" version="1.1" viewBox="0 0 864 432" width="864pt" xmlns="http://www.w3.org/2000/svg" xmlns:xlink="http://www.w3.org/1999/xlink">
 <metadata>
  <rdf:RDF xmlns:cc="http://creativecommons.org/ns#" xmlns:dc="http://purl.org/dc/elements/1.1/" xmlns:rdf="http://www.w3.org/1999/02/22-rdf-syntax-ns#">
   <cc:Work>
    <dc:type rdf:resource="http://purl.org/dc/dcmitype/StillImage"/>
    <dc:date>2025-12-23T19:50:43.399803</dc:date>
    <dc:format>image/svg+xml</dc:format>
    <dc:creator>
     <cc:Agent>
      <dc:title>Matplotlib v3.3.4, https://matplotlib.org/</dc:title>
     </cc:Agent>
    </dc:creator>
   </cc:Work>
  </rdf:RDF>
 </metadata>
 <defs>
  <style type="text/css">*{stroke-linecap:butt;stroke-linejoin:round;}</style>
 </defs>
 <g id="figure_1">
  <g id="patch_1">
   <path d="M 0 432 
L 864 432 
L 864 0 
L 0 0 
z
" style="fill:#ffffff;"/>
  </g>
  <g id="axes_1">
   <g id="patch_2">
    <path d="M 42.33 383.270971 
L 853.2 383.270971 
L 853.2 25.44 
L 42.33 25.44 
z
" style="fill:#ffffff;"/>
   </g>
   <g id="matplotlib.axis_1">
    <g id="xtick_1">
     <g id="line2d_1">
      <path clip-path="url(#p79ef61213f)" d="M 104.176017 383.270971 
L 104.176017 25.44 
" style="fill:none;stroke:#cccccc;stroke-linecap:round;stroke-width:0.8;"/>
     </g>
     <g id="line2d_2"/>
     <g id="text_1">
      <!-- matmul1 -->
      <g style="fill:#262626;" transform="translate(75.59675 419.007306)rotate(-45)scale(0.1 -0.1)">
       <defs>
        <path d="M 37.5 0 
L 37.5 33.5 
Q 37.5 41.15625 35.390625 44.078125 
Q 33.296875 47.015625 27.828125 47.015625 
Q 22.21875 47.015625 18.9375 42.71875 
Q 15.671875 38.421875 15.671875 30.609375 
L 15.671875 0 
L 6.9375 0 
L 6.9375 41.546875 
Q 6.9375 50.78125 6.640625 52.828125 
L 14.9375 52.828125 
Q 14.984375 52.59375 15.03125 51.515625 
Q 15.09375 50.4375 15.15625 49.046875 
Q 15.234375 47.65625 15.328125 43.796875 
L 15.484375 43.796875 
Q 18.3125 49.421875 21.96875 51.609375 
Q 25.640625 53.8125 30.90625 53.8125 
Q 36.921875 53.8125 40.40625 51.421875 
Q 43.890625 49.03125 45.265625 43.796875 
L 45.40625 43.796875 
Q 48.140625 49.125 52.015625 51.46875 
Q 55.90625 53.8125 61.421875 53.8125 
Q 69.4375 53.8125 73.0625 49.46875 
Q 76.703125 45.125 76.703125 35.203125 
L 76.703125 0 
L 68.015625 0 
L 68.015625 33.5 
Q 68.015625 41.15625 65.90625 44.078125 
Q 63.8125 47.015625 58.34375 47.015625 
Q 52.59375 47.015625 49.390625 42.75 
Q 46.1875 38.484375 46.1875 30.609375 
L 46.1875 0 
z
" id="LiberationSans-109"/>
        <path d="M 20.21875 -0.984375 
Q 12.25 -0.984375 8.25 3.21875 
Q 4.25 7.421875 4.25 14.75 
Q 4.25 22.953125 9.640625 27.34375 
Q 15.046875 31.734375 27.046875 32.03125 
L 38.921875 32.234375 
L 38.921875 35.109375 
Q 38.921875 41.546875 36.1875 44.328125 
Q 33.453125 47.125 27.59375 47.125 
Q 21.6875 47.125 19 45.109375 
Q 16.3125 43.109375 15.765625 38.71875 
L 6.59375 39.546875 
Q 8.84375 53.8125 27.78125 53.8125 
Q 37.75 53.8125 42.765625 49.234375 
Q 47.796875 44.671875 47.796875 36.03125 
L 47.796875 13.28125 
Q 47.796875 9.375 48.828125 7.390625 
Q 49.859375 5.421875 52.734375 5.421875 
Q 54 5.421875 55.609375 5.765625 
L 55.609375 0.296875 
Q 52.296875 -0.484375 48.828125 -0.484375 
Q 43.953125 -0.484375 41.71875 2.078125 
Q 39.5 4.640625 39.203125 10.109375 
L 38.921875 10.109375 
Q 35.546875 4.046875 31.078125 1.53125 
Q 26.609375 -0.984375 20.21875 -0.984375 
z
M 22.21875 5.609375 
Q 27.046875 5.609375 30.8125 7.8125 
Q 34.578125 10.015625 36.75 13.84375 
Q 38.921875 17.671875 38.921875 21.734375 
L 38.921875 26.078125 
L 29.296875 25.875 
Q 23.09375 25.78125 19.890625 24.609375 
Q 16.703125 23.4375 14.984375 21 
Q 13.28125 18.5625 13.28125 14.59375 
Q 13.28125 10.296875 15.59375 7.953125 
Q 17.921875 5.609375 22.21875 5.609375 
z
" id="LiberationSans-97"/>
        <path d="M 27.046875 0.390625 
Q 22.703125 -0.78125 18.171875 -0.78125 
Q 7.625 -0.78125 7.625 11.1875 
L 7.625 46.4375 
L 1.515625 46.4375 
L 1.515625 52.828125 
L 7.953125 52.828125 
L 10.546875 64.65625 
L 16.40625 64.65625 
L 16.40625 52.828125 
L 26.171875 52.828125 
L 26.171875 46.4375 
L 16.40625 46.4375 
L 16.40625 13.09375 
Q 16.40625 9.28125 17.640625 7.734375 
Q 18.890625 6.203125 21.96875 6.203125 
Q 23.734375 6.203125 27.046875 6.890625 
z
" id="LiberationSans-116"/>
        <path d="M 15.328125 52.828125 
L 15.328125 19.34375 
Q 15.328125 14.109375 16.359375 11.21875 
Q 17.390625 8.34375 19.625 7.078125 
Q 21.875 5.8125 26.21875 5.8125 
Q 32.5625 5.8125 36.21875 10.15625 
Q 39.890625 14.5 39.890625 22.21875 
L 39.890625 52.828125 
L 48.6875 52.828125 
L 48.6875 11.28125 
Q 48.6875 2.046875 48.96875 0 
L 40.671875 0 
Q 40.625 0.25 40.578125 1.3125 
Q 40.53125 2.390625 40.453125 3.78125 
Q 40.375 5.171875 40.28125 9.03125 
L 40.140625 9.03125 
Q 37.109375 3.5625 33.125 1.28125 
Q 29.15625 -0.984375 23.25 -0.984375 
Q 14.546875 -0.984375 10.515625 3.34375 
Q 6.5 7.671875 6.5 17.625 
L 6.5 52.828125 
z
" id="LiberationSans-117"/>
        <path d="M 6.734375 0 
L 6.734375 72.46875 
L 15.53125 72.46875 
L 15.53125 0 
z
" id="LiberationSans-108"/>
        <path d="M 7.625 0 
L 7.625 7.46875 
L 25.140625 7.46875 
L 25.140625 60.40625 
L 9.625 49.3125 
L 9.625 57.625 
L 25.875 68.796875 
L 33.984375 68.796875 
L 33.984375 7.46875 
L 50.734375 7.46875 
L 50.734375 0 
z
" id="LiberationSans-49"/>
       </defs>
       <use xlink:href="#LiberationSans-109"/>
       <use x="83.300781" xlink:href="#LiberationSans-97"/>
       <use x="138.916016" xlink:href="#LiberationSans-116"/>
       <use x="166.699219" xlink:href="#LiberationSans-109"/>
       <use x="250" xlink:href="#LiberationSans-117"/>
       <use x="305.615234" xlink:href="#LiberationSans-108"/>
       <use x="327.832031" xlink:href="#LiberationSans-49"/>
      </g>
     </g>
    </g>
    <g id="xtick_2">
     <g id="line2d_3">
      <path clip-path="url(#p79ef61213f)" d="M 166.646741 383.270971 
L 166.646741 25.44 
" style="fill:none;stroke:#cccccc;stroke-linecap:round;stroke-width:0.8;"/>
     </g>
     <g id="line2d_4"/>
     <g id="text_2">
      <!-- bias1 -->
      <g style="fill:#262626;" transform="translate(148.276328 408.798452)rotate(-45)scale(0.1 -0.1)">
       <defs>
        <path d="M 51.421875 26.65625 
Q 51.421875 -0.984375 31.984375 -0.984375 
Q 25.984375 -0.984375 22 1.1875 
Q 18.015625 3.375 15.53125 8.203125 
L 15.4375 8.203125 
Q 15.4375 6.6875 15.234375 3.578125 
Q 15.046875 0.484375 14.9375 0 
L 6.453125 0 
Q 6.734375 2.640625 6.734375 10.890625 
L 6.734375 72.46875 
L 15.53125 72.46875 
L 15.53125 51.8125 
Q 15.53125 48.640625 15.328125 44.34375 
L 15.53125 44.34375 
Q 17.96875 49.421875 22 51.609375 
Q 26.03125 53.8125 31.984375 53.8125 
Q 42 53.8125 46.703125 47.0625 
Q 51.421875 40.328125 51.421875 26.65625 
z
M 42.1875 26.375 
Q 42.1875 37.453125 39.25 42.234375 
Q 36.328125 47.015625 29.734375 47.015625 
Q 22.3125 47.015625 18.921875 41.9375 
Q 15.53125 36.859375 15.53125 25.828125 
Q 15.53125 15.4375 18.84375 10.46875 
Q 22.171875 5.515625 29.640625 5.515625 
Q 36.28125 5.515625 39.234375 10.421875 
Q 42.1875 15.328125 42.1875 26.375 
z
" id="LiberationSans-98"/>
        <path d="M 6.6875 64.0625 
L 6.6875 72.46875 
L 15.484375 72.46875 
L 15.484375 64.0625 
z
M 6.6875 0 
L 6.6875 52.828125 
L 15.484375 52.828125 
L 15.484375 0 
z
" id="LiberationSans-105"/>
        <path d="M 46.390625 14.59375 
Q 46.390625 7.125 40.75 3.0625 
Q 35.109375 -0.984375 24.953125 -0.984375 
Q 15.09375 -0.984375 9.734375 2.265625 
Q 4.390625 5.515625 2.78125 12.40625 
L 10.546875 13.921875 
Q 11.671875 9.671875 15.1875 7.6875 
Q 18.703125 5.71875 24.953125 5.71875 
Q 31.640625 5.71875 34.734375 7.765625 
Q 37.84375 9.8125 37.84375 13.921875 
Q 37.84375 17.046875 35.6875 19 
Q 33.546875 20.953125 28.765625 22.21875 
L 22.46875 23.875 
Q 14.890625 25.828125 11.6875 27.703125 
Q 8.5 29.59375 6.6875 32.28125 
Q 4.890625 34.96875 4.890625 38.875 
Q 4.890625 46.09375 10.03125 49.875 
Q 15.1875 53.65625 25.046875 53.65625 
Q 33.796875 53.65625 38.9375 50.578125 
Q 44.09375 47.515625 45.453125 40.71875 
L 37.546875 39.75 
Q 36.8125 43.265625 33.609375 45.140625 
Q 30.421875 47.015625 25.046875 47.015625 
Q 19.09375 47.015625 16.25 45.203125 
Q 13.421875 43.40625 13.421875 39.75 
Q 13.421875 37.5 14.59375 36.03125 
Q 15.765625 34.578125 18.0625 33.546875 
Q 20.359375 32.515625 27.734375 30.71875 
Q 34.71875 28.953125 37.796875 27.46875 
Q 40.875 25.984375 42.65625 24.171875 
Q 44.4375 22.359375 45.40625 19.984375 
Q 46.390625 17.625 46.390625 14.59375 
z
" id="LiberationSans-115"/>
       </defs>
       <use xlink:href="#LiberationSans-98"/>
       <use x="55.615234" xlink:href="#LiberationSans-105"/>
       <use x="77.832031" xlink:href="#LiberationSans-97"/>
       <use x="133.447266" xlink:href="#LiberationSans-115"/>
       <use x="183.447266" xlink:href="#LiberationSans-49"/>
      </g>
     </g>
    </g>
    <g id="xtick_3">
     <g id="line2d_5">
      <path clip-path="url(#p79ef61213f)" d="M 229.117465 383.270971 
L 229.117465 25.44 
" style="fill:none;stroke:#cccccc;stroke-linecap:round;stroke-width:0.8;"/>
     </g>
     <g id="line2d_6"/>
     <g id="text_3">
      <!-- relu1 -->
      <g style="fill:#262626;" transform="translate(211.928141 407.617363)rotate(-45)scale(0.1 -0.1)">
       <defs>
        <path d="M 6.9375 0 
L 6.9375 40.53125 
Q 6.9375 46.09375 6.640625 52.828125 
L 14.9375 52.828125 
Q 15.328125 43.84375 15.328125 42.046875 
L 15.53125 42.046875 
Q 17.625 48.828125 20.359375 51.3125 
Q 23.09375 53.8125 28.078125 53.8125 
Q 29.828125 53.8125 31.640625 53.328125 
L 31.640625 45.265625 
Q 29.890625 45.75 26.953125 45.75 
Q 21.484375 45.75 18.59375 41.03125 
Q 15.71875 36.328125 15.71875 27.546875 
L 15.71875 0 
z
" id="LiberationSans-114"/>
        <path d="M 13.484375 24.5625 
Q 13.484375 15.484375 17.234375 10.546875 
Q 21 5.609375 28.21875 5.609375 
Q 33.9375 5.609375 37.375 7.90625 
Q 40.828125 10.203125 42.046875 13.71875 
L 49.75 11.53125 
Q 45.015625 -0.984375 28.21875 -0.984375 
Q 16.5 -0.984375 10.375 6 
Q 4.25 12.984375 4.25 26.765625 
Q 4.25 39.84375 10.375 46.828125 
Q 16.5 53.8125 27.875 53.8125 
Q 51.171875 53.8125 51.171875 25.734375 
L 51.171875 24.5625 
z
M 42.09375 31.296875 
Q 41.359375 39.65625 37.84375 43.484375 
Q 34.328125 47.3125 27.734375 47.3125 
Q 21.34375 47.3125 17.609375 43.03125 
Q 13.875 38.765625 13.578125 31.296875 
z
" id="LiberationSans-101"/>
       </defs>
       <use xlink:href="#LiberationSans-114"/>
       <use x="33.300781" xlink:href="#LiberationSans-101"/>
       <use x="88.916016" xlink:href="#LiberationSans-108"/>
       <use x="111.132812" xlink:href="#LiberationSans-117"/>
       <use x="166.748047" xlink:href="#LiberationSans-49"/>
      </g>
     </g>
    </g>
    <g id="xtick_4">
     <g id="line2d_7">
      <path clip-path="url(#p79ef61213f)" d="M 291.58819 383.270971 
L 291.58819 25.44 
" style="fill:none;stroke:#cccccc;stroke-linecap:round;stroke-width:0.8;"/>
     </g>
     <g id="line2d_8"/>
     <g id="text_4">
      <!-- matmul2 -->
      <g style="fill:#262626;" transform="translate(263.008922 419.007306)rotate(-45)scale(0.1 -0.1)">
       <defs>
        <path d="M 5.03125 0 
L 5.03125 6.203125 
Q 7.515625 11.921875 11.109375 16.28125 
Q 14.703125 20.65625 18.65625 24.1875 
Q 22.609375 27.734375 26.484375 30.765625 
Q 30.375 33.796875 33.5 36.8125 
Q 36.625 39.84375 38.546875 43.15625 
Q 40.484375 46.484375 40.484375 50.6875 
Q 40.484375 56.34375 37.15625 59.46875 
Q 33.84375 62.59375 27.9375 62.59375 
Q 22.3125 62.59375 18.671875 59.546875 
Q 15.046875 56.5 14.40625 50.984375 
L 5.421875 51.8125 
Q 6.390625 60.0625 12.421875 64.9375 
Q 18.453125 69.828125 27.9375 69.828125 
Q 38.328125 69.828125 43.921875 64.921875 
Q 49.515625 60.015625 49.515625 50.984375 
Q 49.515625 46.96875 47.671875 43.015625 
Q 45.84375 39.0625 42.234375 35.109375 
Q 38.625 31.15625 28.421875 22.859375 
Q 22.796875 18.265625 19.46875 14.578125 
Q 16.15625 10.890625 14.703125 7.46875 
L 50.59375 7.46875 
L 50.59375 0 
z
" id="LiberationSans-50"/>
       </defs>
       <use xlink:href="#LiberationSans-109"/>
       <use x="83.300781" xlink:href="#LiberationSans-97"/>
       <use x="138.916016" xlink:href="#LiberationSans-116"/>
       <use x="166.699219" xlink:href="#LiberationSans-109"/>
       <use x="250" xlink:href="#LiberationSans-117"/>
       <use x="305.615234" xlink:href="#LiberationSans-108"/>
       <use x="327.832031" xlink:href="#LiberationSans-50"/>
      </g>
     </g>
    </g>
    <g id="xtick_5">
     <g id="line2d_9">
      <path clip-path="url(#p79ef61213f)" d="M 354.058914 383.270971 
L 354.058914 25.44 
" style="fill:none;stroke:#cccccc;stroke-linecap:round;stroke-width:0.8;"/>
     </g>
     <g id="line2d_10"/>
     <g id="text_5">
      <!-- bias2 -->
      <g style="fill:#262626;" transform="translate(335.688501 408.798452)rotate(-45)scale(0.1 -0.1)">
       <use xlink:href="#LiberationSans-98"/>
       <use x="55.615234" xlink:href="#LiberationSans-105"/>
       <use x="77.832031" xlink:href="#LiberationSans-97"/>
       <use x="133.447266" xlink:href="#LiberationSans-115"/>
       <use x="183.447266" xlink:href="#LiberationSans-50"/>
      </g>
     </g>
    </g>
    <g id="xtick_6">
     <g id="line2d_11">
      <path clip-path="url(#p79ef61213f)" d="M 416.529638 383.270971 
L 416.529638 25.44 
" style="fill:none;stroke:#cccccc;stroke-linecap:round;stroke-width:0.8;"/>
     </g>
     <g id="line2d_12"/>
     <g id="text_6">
      <!-- mse -->
      <g style="fill:#262626;" transform="translate(401.704702 405.252974)rotate(-45)scale(0.1 -0.1)">
       <use xlink:href="#LiberationSans-109"/>
       <use x="83.300781" xlink:href="#LiberationSans-115"/>
       <use x="133.300781" xlink:href="#LiberationSans-101"/>
      </g>
     </g>
    </g>
    <g id="xtick_7">
     <g id="line2d_13">
      <path clip-path="url(#p79ef61213f)" d="M 479.000362 383.270971 
L 479.000362 25.44 
" style="fill:none;stroke:#cccccc;stroke-linecap:round;stroke-width:0.8;"/>
     </g>
     <g id="line2d_14"/>
     <g id="text_7">
      <!-- dW2 -->
      <g style="fill:#262626;" transform="translate(462.994337 406.434064)rotate(-45)scale(0.1 -0.1)">
       <defs>
        <path d="M 40.09375 8.5 
Q 37.640625 3.421875 33.609375 1.21875 
Q 29.59375 -0.984375 23.640625 -0.984375 
Q 13.625 -0.984375 8.90625 5.75 
Q 4.203125 12.5 4.203125 26.171875 
Q 4.203125 53.8125 23.640625 53.8125 
Q 29.640625 53.8125 33.640625 51.609375 
Q 37.640625 49.421875 40.09375 44.625 
L 40.1875 44.625 
L 40.09375 50.53125 
L 40.09375 72.46875 
L 48.875 72.46875 
L 48.875 10.890625 
Q 48.875 2.640625 49.171875 0 
L 40.765625 0 
Q 40.625 0.78125 40.453125 3.609375 
Q 40.28125 6.453125 40.28125 8.5 
z
M 13.421875 26.46875 
Q 13.421875 15.375 16.34375 10.59375 
Q 19.28125 5.8125 25.875 5.8125 
Q 33.34375 5.8125 36.71875 10.984375 
Q 40.09375 16.15625 40.09375 27.046875 
Q 40.09375 37.546875 36.71875 42.421875 
Q 33.34375 47.3125 25.984375 47.3125 
Q 19.34375 47.3125 16.375 42.40625 
Q 13.421875 37.5 13.421875 26.46875 
z
" id="LiberationSans-100"/>
        <path d="M 73.78125 0 
L 62.640625 0 
L 50.734375 43.703125 
Q 49.5625 47.796875 47.3125 58.40625 
Q 46.046875 52.734375 45.15625 48.921875 
Q 44.28125 45.125 31.84375 0 
L 20.703125 0 
L 0.4375 68.796875 
L 10.15625 68.796875 
L 22.515625 25.09375 
Q 24.703125 16.890625 26.5625 8.203125 
Q 27.734375 13.578125 29.265625 19.921875 
Q 30.8125 26.265625 42.828125 68.796875 
L 51.765625 68.796875 
L 63.71875 25.984375 
Q 66.453125 15.484375 68.015625 8.203125 
L 68.453125 9.90625 
Q 69.78125 15.53125 70.609375 19.0625 
Q 71.4375 22.609375 84.328125 68.796875 
L 94.046875 68.796875 
z
" id="LiberationSans-87"/>
       </defs>
       <use xlink:href="#LiberationSans-100"/>
       <use x="55.615234" xlink:href="#LiberationSans-87"/>
       <use x="150" xlink:href="#LiberationSans-50"/>
      </g>
     </g>
    </g>
    <g id="xtick_8">
     <g id="line2d_15">
      <path clip-path="url(#p79ef61213f)" d="M 541.471086 383.270971 
L 541.471086 25.44 
" style="fill:none;stroke:#cccccc;stroke-linecap:round;stroke-width:0.8;"/>
     </g>
     <g id="line2d_16"/>
     <g id="text_8">
      <!-- dZ1 -->
      <g style="fill:#262626;" transform="translate(527.820611 404.078514)rotate(-45)scale(0.1 -0.1)">
       <defs>
        <path d="M 57.953125 0 
L 3.171875 0 
L 3.171875 6.984375 
L 45.0625 61.1875 
L 6.734375 61.1875 
L 6.734375 68.796875 
L 55.671875 68.796875 
L 55.671875 62.015625 
L 13.765625 7.625 
L 57.953125 7.625 
z
" id="LiberationSans-90"/>
       </defs>
       <use xlink:href="#LiberationSans-100"/>
       <use x="55.615234" xlink:href="#LiberationSans-90"/>
       <use x="116.699219" xlink:href="#LiberationSans-49"/>
      </g>
     </g>
    </g>
    <g id="xtick_9">
     <g id="line2d_17">
      <path clip-path="url(#p79ef61213f)" d="M 603.94181 383.270971 
L 603.94181 25.44 
" style="fill:none;stroke:#cccccc;stroke-linecap:round;stroke-width:0.8;"/>
     </g>
     <g id="line2d_18"/>
     <g id="text_9">
      <!-- relu_b -->
      <g style="fill:#262626;" transform="translate(582.82031 411.549539)rotate(-45)scale(0.1 -0.1)">
       <defs>
        <path d="M -1.515625 -19.875 
L -1.515625 -13.53125 
L 56.734375 -13.53125 
L 56.734375 -19.875 
z
" id="LiberationSans-95"/>
       </defs>
       <use xlink:href="#LiberationSans-114"/>
       <use x="33.300781" xlink:href="#LiberationSans-101"/>
       <use x="88.916016" xlink:href="#LiberationSans-108"/>
       <use x="111.132812" xlink:href="#LiberationSans-117"/>
       <use x="166.748047" xlink:href="#LiberationSans-95"/>
       <use x="222.363281" xlink:href="#LiberationSans-98"/>
      </g>
     </g>
    </g>
    <g id="xtick_10">
     <g id="line2d_19">
      <path clip-path="url(#p79ef61213f)" d="M 666.412535 383.270971 
L 666.412535 25.44 
" style="fill:none;stroke:#cccccc;stroke-linecap:round;stroke-width:0.8;"/>
     </g>
     <g id="line2d_20"/>
     <g id="text_10">
      <!-- dW1 -->
      <g style="fill:#262626;" transform="translate(650.40651 406.434064)rotate(-45)scale(0.1 -0.1)">
       <use xlink:href="#LiberationSans-100"/>
       <use x="55.615234" xlink:href="#LiberationSans-87"/>
       <use x="150" xlink:href="#LiberationSans-49"/>
      </g>
     </g>
    </g>
    <g id="xtick_11">
     <g id="line2d_21">
      <path clip-path="url(#p79ef61213f)" d="M 728.883259 383.270971 
L 728.883259 25.44 
" style="fill:none;stroke:#cccccc;stroke-linecap:round;stroke-width:0.8;"/>
     </g>
     <g id="line2d_22"/>
     <g id="text_11">
      <!-- sgd1 -->
      <g style="fill:#262626;" transform="translate(712.083949 407.227349)rotate(-45)scale(0.1 -0.1)">
       <defs>
        <path d="M 26.765625 -20.75 
Q 18.109375 -20.75 12.984375 -17.359375 
Q 7.859375 -13.96875 6.390625 -7.71875 
L 15.234375 -6.453125 
Q 16.109375 -10.109375 19.109375 -12.078125 
Q 22.125 -14.0625 27 -14.0625 
Q 40.140625 -14.0625 40.140625 1.3125 
L 40.140625 9.8125 
L 40.046875 9.8125 
Q 37.546875 4.734375 33.203125 2.171875 
Q 28.859375 -0.390625 23.046875 -0.390625 
Q 13.328125 -0.390625 8.765625 6.046875 
Q 4.203125 12.5 4.203125 26.3125 
Q 4.203125 40.328125 9.109375 46.984375 
Q 14.015625 53.65625 24.03125 53.65625 
Q 29.640625 53.65625 33.765625 51.09375 
Q 37.890625 48.53125 40.140625 43.796875 
L 40.234375 43.796875 
Q 40.234375 45.265625 40.421875 48.875 
Q 40.625 52.484375 40.828125 52.828125 
L 49.171875 52.828125 
Q 48.875 50.203125 48.875 41.890625 
L 48.875 1.515625 
Q 48.875 -20.75 26.765625 -20.75 
z
M 40.140625 26.421875 
Q 40.140625 32.859375 38.375 37.515625 
Q 36.625 42.1875 33.421875 44.65625 
Q 30.21875 47.125 26.171875 47.125 
Q 19.4375 47.125 16.359375 42.234375 
Q 13.28125 37.359375 13.28125 26.421875 
Q 13.28125 15.578125 16.15625 10.84375 
Q 19.046875 6.109375 26.03125 6.109375 
Q 30.171875 6.109375 33.390625 8.546875 
Q 36.625 10.984375 38.375 15.546875 
Q 40.140625 20.125 40.140625 26.421875 
z
" id="LiberationSans-103"/>
       </defs>
       <use xlink:href="#LiberationSans-115"/>
       <use x="50" xlink:href="#LiberationSans-103"/>
       <use x="105.615234" xlink:href="#LiberationSans-100"/>
       <use x="161.230469" xlink:href="#LiberationSans-49"/>
      </g>
     </g>
    </g>
    <g id="xtick_12">
     <g id="line2d_23">
      <path clip-path="url(#p79ef61213f)" d="M 791.353983 383.270971 
L 791.353983 25.44 
" style="fill:none;stroke:#cccccc;stroke-linecap:round;stroke-width:0.8;"/>
     </g>
     <g id="line2d_24"/>
     <g id="text_12">
      <!-- sgd2 -->
      <g style="fill:#262626;" transform="translate(774.554673 407.227349)rotate(-45)scale(0.1 -0.1)">
       <use xlink:href="#LiberationSans-115"/>
       <use x="50" xlink:href="#LiberationSans-103"/>
       <use x="105.615234" xlink:href="#LiberationSans-100"/>
       <use x="161.230469" xlink:href="#LiberationSans-50"/>
      </g>
     </g>
    </g>
   </g>
   <g id="matplotlib.axis_2">
    <g id="ytick_1">
     <g id="line2d_25">
      <path clip-path="url(#p79ef61213f)" d="M 42.33 366.721605 
L 853.2 366.721605 
" style="fill:none;stroke:#cccccc;stroke-linecap:round;stroke-width:0.8;"/>
     </g>
     <g id="line2d_26"/>
     <g id="text_13">
      <!-- 0.0 -->
      <g style="fill:#262626;" transform="translate(24.93 370.345043)scale(0.1 -0.1)">
       <defs>
        <path d="M 51.703125 34.421875 
Q 51.703125 17.1875 45.625 8.09375 
Q 39.546875 -0.984375 27.6875 -0.984375 
Q 15.828125 -0.984375 9.859375 8.046875 
Q 3.90625 17.09375 3.90625 34.421875 
Q 3.90625 52.15625 9.6875 60.984375 
Q 15.484375 69.828125 27.984375 69.828125 
Q 40.140625 69.828125 45.921875 60.890625 
Q 51.703125 51.953125 51.703125 34.421875 
z
M 42.78125 34.421875 
Q 42.78125 49.3125 39.328125 56 
Q 35.890625 62.703125 27.984375 62.703125 
Q 19.875 62.703125 16.328125 56.109375 
Q 12.796875 49.515625 12.796875 34.421875 
Q 12.796875 19.78125 16.375 12.984375 
Q 19.96875 6.203125 27.78125 6.203125 
Q 35.546875 6.203125 39.15625 13.125 
Q 42.78125 20.0625 42.78125 34.421875 
z
" id="LiberationSans-48"/>
        <path d="M 9.125 0 
L 9.125 10.6875 
L 18.65625 10.6875 
L 18.65625 0 
z
" id="LiberationSans-46"/>
       </defs>
       <use xlink:href="#LiberationSans-48"/>
       <use x="55.615234" xlink:href="#LiberationSans-46"/>
       <use x="83.398438" xlink:href="#LiberationSans-48"/>
      </g>
     </g>
    </g>
    <g id="ytick_2">
     <g id="line2d_27">
      <path clip-path="url(#p79ef61213f)" d="M 42.33 307.277979 
L 853.2 307.277979 
" style="fill:none;stroke:#cccccc;stroke-linecap:round;stroke-width:0.8;"/>
     </g>
     <g id="line2d_28"/>
     <g id="text_14">
      <!-- 0.2 -->
      <g style="fill:#262626;" transform="translate(24.93 310.901417)scale(0.1 -0.1)">
       <use xlink:href="#LiberationSans-48"/>
       <use x="55.615234" xlink:href="#LiberationSans-46"/>
       <use x="83.398438" xlink:href="#LiberationSans-50"/>
      </g>
     </g>
    </g>
    <g id="ytick_3">
     <g id="line2d_29">
      <path clip-path="url(#p79ef61213f)" d="M 42.33 247.834353 
L 853.2 247.834353 
" style="fill:none;stroke:#cccccc;stroke-linecap:round;stroke-width:0.8;"/>
     </g>
     <g id="line2d_30"/>
     <g id="text_15">
      <!-- 0.4 -->
      <g style="fill:#262626;" transform="translate(24.93 251.457791)scale(0.1 -0.1)">
       <defs>
        <path d="M 43.015625 15.578125 
L 43.015625 0 
L 34.71875 0 
L 34.71875 15.578125 
L 2.296875 15.578125 
L 2.296875 22.40625 
L 33.796875 68.796875 
L 43.015625 68.796875 
L 43.015625 22.515625 
L 52.6875 22.515625 
L 52.6875 15.578125 
z
M 34.71875 58.890625 
Q 34.625 58.59375 33.34375 56.296875 
Q 32.078125 54 31.453125 53.078125 
L 13.8125 27.09375 
L 11.1875 23.484375 
L 10.40625 22.515625 
L 34.71875 22.515625 
z
" id="LiberationSans-52"/>
       </defs>
       <use xlink:href="#LiberationSans-48"/>
       <use x="55.615234" xlink:href="#LiberationSans-46"/>
       <use x="83.398438" xlink:href="#LiberationSans-52"/>
      </g>
     </g>
    </g>
    <g id="ytick_4">
     <g id="line2d_31">
      <path clip-path="url(#p79ef61213f)" d="M 42.33 188.390727 
L 853.2 188.390727 
" style="fill:none;stroke:#cccccc;stroke-linecap:round;stroke-width:0.8;"/>
     </g>
     <g id="line2d_32"/>
     <g id="text_16">
      <!-- 0.6 -->
      <g style="fill:#262626;" transform="translate(24.93 192.014165)scale(0.1 -0.1)">
       <defs>
        <path d="M 51.21875 22.515625 
Q 51.21875 11.625 45.3125 5.3125 
Q 39.40625 -0.984375 29 -0.984375 
Q 17.390625 -0.984375 11.234375 7.65625 
Q 5.078125 16.3125 5.078125 32.8125 
Q 5.078125 50.6875 11.46875 60.25 
Q 17.875 69.828125 29.6875 69.828125 
Q 45.265625 69.828125 49.3125 55.8125 
L 40.921875 54.296875 
Q 38.328125 62.703125 29.59375 62.703125 
Q 22.078125 62.703125 17.9375 55.6875 
Q 13.8125 48.6875 13.8125 35.40625 
Q 16.21875 39.84375 20.5625 42.15625 
Q 24.90625 44.484375 30.515625 44.484375 
Q 40.046875 44.484375 45.625 38.515625 
Q 51.21875 32.5625 51.21875 22.515625 
z
M 42.28125 22.125 
Q 42.28125 29.59375 38.625 33.640625 
Q 34.96875 37.703125 28.421875 37.703125 
Q 22.265625 37.703125 18.484375 34.109375 
Q 14.703125 30.515625 14.703125 24.21875 
Q 14.703125 16.265625 18.625 11.1875 
Q 22.5625 6.109375 28.71875 6.109375 
Q 35.0625 6.109375 38.671875 10.375 
Q 42.28125 14.65625 42.28125 22.125 
z
" id="LiberationSans-54"/>
       </defs>
       <use xlink:href="#LiberationSans-48"/>
       <use x="55.615234" xlink:href="#LiberationSans-46"/>
       <use x="83.398438" xlink:href="#LiberationSans-54"/>
      </g>
     </g>
    </g>
    <g id="ytick_5">
     <g id="line2d_33">
      <path clip-path="url(#p79ef61213f)" d="M 42.33 128.947101 
L 853.2 128.947101 
" style="fill:none;stroke:#cccccc;stroke-linecap:round;stroke-width:0.8;"/>
     </g>
     <g id="line2d_34"/>
     <g id="text_17">
      <!-- 0.8 -->
      <g style="fill:#262626;" transform="translate(24.93 132.570539)scale(0.1 -0.1)">
       <defs>
        <path d="M 51.265625 19.1875 
Q 51.265625 9.671875 45.203125 4.34375 
Q 39.15625 -0.984375 27.828125 -0.984375 
Q 16.796875 -0.984375 10.5625 4.234375 
Q 4.34375 9.46875 4.34375 19.09375 
Q 4.34375 25.828125 8.203125 30.421875 
Q 12.0625 35.015625 18.0625 35.984375 
L 18.0625 36.1875 
Q 12.453125 37.5 9.203125 41.890625 
Q 5.953125 46.296875 5.953125 52.203125 
Q 5.953125 60.0625 11.828125 64.9375 
Q 17.71875 69.828125 27.640625 69.828125 
Q 37.796875 69.828125 43.671875 65.03125 
Q 49.5625 60.25 49.5625 52.09375 
Q 49.5625 46.1875 46.28125 41.796875 
Q 43.015625 37.40625 37.359375 36.28125 
L 37.359375 36.078125 
Q 43.953125 35.015625 47.609375 30.5 
Q 51.265625 25.984375 51.265625 19.1875 
z
M 40.4375 51.609375 
Q 40.4375 63.28125 27.640625 63.28125 
Q 21.4375 63.28125 18.1875 60.34375 
Q 14.9375 57.421875 14.9375 51.609375 
Q 14.9375 45.703125 18.28125 42.59375 
Q 21.625 39.5 27.734375 39.5 
Q 33.9375 39.5 37.1875 42.359375 
Q 40.4375 45.21875 40.4375 51.609375 
z
M 42.140625 20.015625 
Q 42.140625 26.421875 38.328125 29.65625 
Q 34.515625 32.90625 27.640625 32.90625 
Q 20.953125 32.90625 17.1875 29.40625 
Q 13.421875 25.921875 13.421875 19.828125 
Q 13.421875 5.609375 27.9375 5.609375 
Q 35.109375 5.609375 38.625 9.046875 
Q 42.140625 12.5 42.140625 20.015625 
z
" id="LiberationSans-56"/>
       </defs>
       <use xlink:href="#LiberationSans-48"/>
       <use x="55.615234" xlink:href="#LiberationSans-46"/>
       <use x="83.398438" xlink:href="#LiberationSans-56"/>
      </g>
     </g>
    </g>
    <g id="ytick_6">
     <g id="line2d_35">
      <path clip-path="url(#p79ef61213f)" d="M 42.33 69.503475 
L 853.2 69.503475 
" style="fill:none;stroke:#cccccc;stroke-linecap:round;stroke-width:0.8;"/>
     </g>
     <g id="line2d_36"/>
     <g id="text_18">
      <!-- 1.0 -->
      <g style="fill:#262626;" transform="translate(24.93 73.126912)scale(0.1 -0.1)">
       <use xlink:href="#LiberationSans-49"/>
       <use x="55.615234" xlink:href="#LiberationSans-46"/>
       <use x="83.398438" xlink:href="#LiberationSans-48"/>
      </g>
     </g>
    </g>
    <g id="text_19">
     <!-- Time (ms) -->
     <g style="fill:#262626;" transform="translate(18.855 226.661735)rotate(-90)scale(0.1 -0.1)">
      <defs>
       <path d="M 35.15625 61.1875 
L 35.15625 0 
L 25.875 0 
L 25.875 61.1875 
L 2.25 61.1875 
L 2.25 68.796875 
L 58.796875 68.796875 
L 58.796875 61.1875 
z
" id="LiberationSans-84"/>
       <path id="LiberationSans-32"/>
       <path d="M 6.203125 25.984375 
Q 6.203125 40.09375 10.625 51.3125 
Q 15.046875 62.546875 24.21875 72.46875 
L 32.71875 72.46875 
Q 23.578125 62.3125 19.3125 50.875 
Q 15.046875 39.453125 15.046875 25.875 
Q 15.046875 12.359375 19.265625 0.96875 
Q 23.484375 -10.40625 32.71875 -20.703125 
L 24.21875 -20.703125 
Q 14.984375 -10.75 10.59375 0.5 
Q 6.203125 11.765625 6.203125 25.78125 
z
" id="LiberationSans-40"/>
       <path d="M 27.09375 25.78125 
Q 27.09375 11.671875 22.671875 0.4375 
Q 18.265625 -10.796875 9.078125 -20.703125 
L 0.59375 -20.703125 
Q 9.765625 -10.453125 14.015625 0.890625 
Q 18.265625 12.25 18.265625 25.875 
Q 18.265625 39.5 13.984375 50.875 
Q 9.71875 62.25 0.59375 72.46875 
L 9.078125 72.46875 
Q 18.3125 62.5 22.703125 51.234375 
Q 27.09375 39.984375 27.09375 25.984375 
z
" id="LiberationSans-41"/>
      </defs>
      <use xlink:href="#LiberationSans-84"/>
      <use x="57.333984" xlink:href="#LiberationSans-105"/>
      <use x="79.550781" xlink:href="#LiberationSans-109"/>
      <use x="162.851562" xlink:href="#LiberationSans-101"/>
      <use x="218.466797" xlink:href="#LiberationSans-32"/>
      <use x="246.25" xlink:href="#LiberationSans-40"/>
      <use x="279.550781" xlink:href="#LiberationSans-109"/>
      <use x="362.851562" xlink:href="#LiberationSans-115"/>
      <use x="412.851562" xlink:href="#LiberationSans-41"/>
     </g>
    </g>
   </g>
   <g id="patch_3">
    <path clip-path="url(#p79ef61213f)" d="M 79.187727 366.721605 
L 129.164307 366.721605 
L 129.164307 293.097679 
L 79.187727 293.097679 
z
" style="fill:#1f77b4;opacity:0.85;"/>
   </g>
   <g id="patch_4">
    <path clip-path="url(#p79ef61213f)" d="M 141.658451 366.721605 
L 191.635031 366.721605 
L 191.635031 296.418723 
L 141.658451 296.418723 
z
" style="fill:#1f77b4;opacity:0.85;"/>
   </g>
   <g id="patch_5">
    <path clip-path="url(#p79ef61213f)" d="M 204.129176 366.721605 
L 254.105755 366.721605 
L 254.105755 297.607976 
L 204.129176 297.607976 
z
" style="fill:#1f77b4;opacity:0.85;"/>
   </g>
   <g id="patch_6">
    <path clip-path="url(#p79ef61213f)" d="M 266.5999 366.721605 
L 316.576479 366.721605 
L 316.576479 82.510311 
L 266.5999 82.510311 
z
" style="fill:#1f77b4;opacity:0.85;"/>
   </g>
   <g id="patch_7">
    <path clip-path="url(#p79ef61213f)" d="M 329.070624 366.721605 
L 379.047203 366.721605 
L 379.047203 362.241363 
L 329.070624 362.241363 
z
" style="fill:#1f77b4;opacity:0.85;"/>
   </g>
   <g id="patch_8">
    <path clip-path="url(#p79ef61213f)" d="M 391.541348 366.721605 
L 441.517928 366.721605 
L 441.517928 363.539231 
L 391.541348 363.539231 
z
" style="fill:#1f77b4;opacity:0.85;"/>
   </g>
   <g id="patch_9">
    <path clip-path="url(#p79ef61213f)" d="M 454.012072 366.721605 
L 503.988652 366.721605 
L 503.988652 52.151048 
L 454.012072 52.151048 
z
" style="fill:#1f77b4;opacity:0.85;"/>
   </g>
   <g id="patch_10">
    <path clip-path="url(#p79ef61213f)" d="M 516.482797 366.721605 
L 566.459376 366.721605 
L 566.459376 311.475175 
L 516.482797 311.475175 
z
" style="fill:#1f77b4;opacity:0.85;"/>
   </g>
   <g id="patch_11">
    <path clip-path="url(#p79ef61213f)" d="M 578.953521 366.721605 
L 628.9301 366.721605 
L 628.9301 264.690473 
L 578.953521 264.690473 
z
" style="fill:#1f77b4;opacity:0.85;"/>
   </g>
   <g id="patch_12">
    <path clip-path="url(#p79ef61213f)" d="M 641.424245 366.721605 
L 691.400824 366.721605 
L 691.400824 207.147521 
L 641.424245 207.147521 
z
" style="fill:#1f77b4;opacity:0.85;"/>
   </g>
   <g id="patch_13">
    <path clip-path="url(#p79ef61213f)" d="M 703.894969 366.721605 
L 753.871549 366.721605 
L 753.871549 362.456311 
L 703.894969 362.456311 
z
" style="fill:#1f77b4;opacity:0.85;"/>
   </g>
   <g id="patch_14">
    <path clip-path="url(#p79ef61213f)" d="M 766.365693 366.721605 
L 816.342273 366.721605 
L 816.342273 364.160679 
L 766.365693 364.160679 
z
" style="fill:#1f77b4;opacity:0.85;"/>
   </g>
   <g id="patch_15">
    <path clip-path="url(#p79ef61213f)" d="M 0 0 
z
" style="fill:#1f77b4;opacity:0.85;"/>
   </g>
   <g id="patch_16">
    <path clip-path="url(#p79ef61213f)" d="M 0 0 
z
" style="fill:#1f77b4;opacity:0.85;"/>
   </g>
   <g id="patch_17">
    <path clip-path="url(#p79ef61213f)" d="M 0 0 
z
" style="fill:#1f77b4;opacity:0.85;"/>
   </g>
   <g id="patch_18">
    <path clip-path="url(#p79ef61213f)" d="M 0 0 
z
" style="fill:#1f77b4;opacity:0.85;"/>
   </g>
   <g id="patch_19">
    <path clip-path="url(#p79ef61213f)" d="M 0 0 
z
" style="fill:#1f77b4;opacity:0.85;"/>
   </g>
   <g id="patch_20">
    <path clip-path="url(#p79ef61213f)" d="M 0 0 
z
" style="fill:#1f77b4;opacity:0.85;"/>
   </g>
   <g id="patch_21">
    <path clip-path="url(#p79ef61213f)" d="M 0 0 
z
" style="fill:#1f77b4;opacity:0.85;"/>
   </g>
   <g id="patch_22">
    <path clip-path="url(#p79ef61213f)" d="M 0 0 
z
" style="fill:#1f77b4;opacity:0.85;"/>
   </g>
   <g id="patch_23">
    <path clip-path="url(#p79ef61213f)" d="M 0 0 
z
" style="fill:#1f77b4;opacity:0.85;"/>
   </g>
   <g id="patch_24">
    <path clip-path="url(#p79ef61213f)" d="M 0 0 
z
" style="fill:#1f77b4;opacity:0.85;"/>
   </g>
   <g id="patch_25">
    <path clip-path="url(#p79ef61213f)" d="M 0 0 
z
" style="fill:#1f77b4;opacity:0.85;"/>
   </g>
   <g id="patch_26">
    <path clip-path="url(#p79ef61213f)" d="M 0 0 
z
" style="fill:#1f77b4;opacity:0.85;"/>
   </g>
   <g id="LineCollection_1">
    <path clip-path="url(#p79ef61213f)" d="M 104.176017 296.062793 
L 104.176017 290.132564 
" style="fill:none;stroke:#000000;stroke-width:1.5;"/>
    <path clip-path="url(#p79ef61213f)" d="M 166.646741 298.943903 
L 166.646741 293.893542 
" style="fill:none;stroke:#000000;stroke-width:1.5;"/>
    <path clip-path="url(#p79ef61213f)" d="M 229.117465 299.327279 
L 229.117465 295.888672 
" style="fill:none;stroke:#000000;stroke-width:1.5;"/>
    <path clip-path="url(#p79ef61213f)" d="M 291.58819 87.170475 
L 291.58819 77.850147 
" style="fill:none;stroke:#000000;stroke-width:1.5;"/>
    <path clip-path="url(#p79ef61213f)" d="M 354.058914 365.52371 
L 354.058914 358.959016 
" style="fill:none;stroke:#000000;stroke-width:1.5;"/>
    <path clip-path="url(#p79ef61213f)" d="M 416.529638 367.005927 
L 416.529638 360.072536 
" style="fill:none;stroke:#000000;stroke-width:1.5;"/>
    <path clip-path="url(#p79ef61213f)" d="M 479.000362 62.597052 
L 479.000362 41.705044 
" style="fill:none;stroke:#000000;stroke-width:1.5;"/>
    <path clip-path="url(#p79ef61213f)" d="M 541.471086 315.471271 
L 541.471086 307.479079 
" style="fill:none;stroke:#000000;stroke-width:1.5;"/>
    <path clip-path="url(#p79ef61213f)" d="M 603.94181 267.25012 
L 603.94181 262.130826 
" style="fill:none;stroke:#000000;stroke-width:1.5;"/>
    <path clip-path="url(#p79ef61213f)" d="M 666.412535 209.797417 
L 666.412535 204.497626 
" style="fill:none;stroke:#000000;stroke-width:1.5;"/>
    <path clip-path="url(#p79ef61213f)" d="M 728.883259 365.224443 
L 728.883259 359.688179 
" style="fill:none;stroke:#000000;stroke-width:1.5;"/>
    <path clip-path="url(#p79ef61213f)" d="M 791.353983 365.330079 
L 791.353983 362.991279 
" style="fill:none;stroke:#000000;stroke-width:1.5;"/>
    <path clip-path="url(#p79ef61213f)" d="M 0 0 
" style="fill:none;stroke:#000000;stroke-width:1.5;"/>
    <path clip-path="url(#p79ef61213f)" d="M 0 0 
" style="fill:none;stroke:#000000;stroke-width:1.5;"/>
    <path clip-path="url(#p79ef61213f)" d="M 0 0 
" style="fill:none;stroke:#000000;stroke-width:1.5;"/>
    <path clip-path="url(#p79ef61213f)" d="M 0 0 
" style="fill:none;stroke:#000000;stroke-width:1.5;"/>
    <path clip-path="url(#p79ef61213f)" d="M 0 0 
" style="fill:none;stroke:#000000;stroke-width:1.5;"/>
    <path clip-path="url(#p79ef61213f)" d="M 0 0 
" style="fill:none;stroke:#000000;stroke-width:1.5;"/>
    <path clip-path="url(#p79ef61213f)" d="M 0 0 
" style="fill:none;stroke:#000000;stroke-width:1.5;"/>
    <path clip-path="url(#p79ef61213f)" d="M 0 0 
" style="fill:none;stroke:#000000;stroke-width:1.5;"/>
    <path clip-path="url(#p79ef61213f)" d="M 0 0 
" style="fill:none;stroke:#000000;stroke-width:1.5;"/>
    <path clip-path="url(#p79ef61213f)" d="M 0 0 
" style="fill:none;stroke:#000000;stroke-width:1.5;"/>
    <path clip-path="url(#p79ef61213f)" d="M 0 0 
" style="fill:none;stroke:#000000;stroke-width:1.5;"/>
    <path clip-path="url(#p79ef61213f)" d="M 0 0 
" style="fill:none;stroke:#000000;stroke-width:1.5;"/>
   </g>
   <g id="line2d_37">
    <defs>
     <path d="M 5 0 
L -5 -0 
" id="mc409e02d27" style="stroke:#000000;"/>
    </defs>
    <g clip-path="url(#p79ef61213f)">
     <use style="stroke:#000000;" x="104.176017" xlink:href="#mc409e02d27" y="296.062793"/>
     <use style="stroke:#000000;" x="166.646741" xlink:href="#mc409e02d27" y="298.943903"/>
     <use style="stroke:#000000;" x="229.117465" xlink:href="#mc409e02d27" y="299.327279"/>
     <use style="stroke:#000000;" x="291.58819" xlink:href="#mc409e02d27" y="87.170475"/>
     <use style="stroke:#000000;" x="354.058914" xlink:href="#mc409e02d27" y="365.52371"/>
     <use style="stroke:#000000;" x="416.529638" xlink:href="#mc409e02d27" y="367.005927"/>
     <use style="stroke:#000000;" x="479.000362" xlink:href="#mc409e02d27" y="62.597052"/>
     <use style="stroke:#000000;" x="541.471086" xlink:href="#mc409e02d27" y="315.471271"/>
     <use style="stroke:#000000;" x="603.94181" xlink:href="#mc409e02d27" y="267.25012"/>
     <use style="stroke:#000000;" x="666.412535" xlink:href="#mc409e02d27" y="209.797417"/>
     <use style="stroke:#000000;" x="728.883259" xlink:href="#mc409e02d27" y="365.224443"/>
     <use style="stroke:#000000;" x="791.353983" xlink:href="#mc409e02d27" y="365.330079"/>
    </g>
   </g>
   <g id="line2d_38">
    <g clip-path="url(#p79ef61213f)">
     <use style="stroke:#000000;" x="104.176017" xlink:href="#mc409e02d27" y="290.132564"/>
     <use style="stroke:#000000;" x="166.646741" xlink:href="#mc409e02d27" y="293.893542"/>
     <use style="stroke:#000000;" x="229.117465" xlink:href="#mc409e02d27" y="295.888672"/>
     <use style="stroke:#000000;" x="291.58819" xlink:href="#mc409e02d27" y="77.850147"/>
     <use style="stroke:#000000;" x="354.058914" xlink:href="#mc409e02d27" y="358.959016"/>
     <use style="stroke:#000000;" x="416.529638" xlink:href="#mc409e02d27" y="360.072536"/>
     <use style="stroke:#000000;" x="479.000362" xlink:href="#mc409e02d27" y="41.705044"/>
     <use style="stroke:#000000;" x="541.471086" xlink:href="#mc409e02d27" y="307.479079"/>
     <use style="stroke:#000000;" x="603.94181" xlink:href="#mc409e02d27" y="262.130826"/>
     <use style="stroke:#000000;" x="666.412535" xlink:href="#mc409e02d27" y="204.497626"/>
     <use style="stroke:#000000;" x="728.883259" xlink:href="#mc409e02d27" y="359.688179"/>
     <use style="stroke:#000000;" x="791.353983" xlink:href="#mc409e02d27" y="362.991279"/>
    </g>
   </g>
   <g id="patch_27">
    <path d="M 42.33 383.270971 
L 42.33 25.44 
" style="fill:none;stroke:#cccccc;stroke-linecap:square;stroke-linejoin:miter;"/>
   </g>
   <g id="patch_28">
    <path d="M 853.2 383.270971 
L 853.2 25.44 
" style="fill:none;stroke:#cccccc;stroke-linecap:square;stroke-linejoin:miter;"/>
   </g>
   <g id="patch_29">
    <path d="M 42.33 383.270971 
L 853.2 383.270971 
" style="fill:none;stroke:#cccccc;stroke-linecap:square;stroke-linejoin:miter;"/>
   </g>
   <g id="patch_30">
    <path d="M 42.33 25.44 
L 853.2 25.44 
" style="fill:none;stroke:#cccccc;stroke-linecap:square;stroke-linejoin:miter;"/>
   </g>
   <g id="text_20">
    <!-- 0.25 -->
    <g style="fill:#262626;" transform="translate(96.391642 287.437679)scale(0.08 -0.08)">
     <defs>
      <path d="M 51.421875 22.40625 
Q 51.421875 11.53125 44.953125 5.265625 
Q 38.484375 -0.984375 27 -0.984375 
Q 17.390625 -0.984375 11.46875 3.21875 
Q 5.5625 7.421875 4 15.375 
L 12.890625 16.40625 
Q 15.671875 6.203125 27.203125 6.203125 
Q 34.28125 6.203125 38.28125 10.46875 
Q 42.28125 14.75 42.28125 22.21875 
Q 42.28125 28.71875 38.25 32.71875 
Q 34.234375 36.71875 27.390625 36.71875 
Q 23.828125 36.71875 20.75 35.59375 
Q 17.671875 34.46875 14.59375 31.78125 
L 6 31.78125 
L 8.296875 68.796875 
L 47.40625 68.796875 
L 47.40625 61.328125 
L 16.3125 61.328125 
L 14.984375 39.5 
Q 20.703125 43.890625 29.203125 43.890625 
Q 39.359375 43.890625 45.390625 37.9375 
Q 51.421875 31.984375 51.421875 22.40625 
z
" id="LiberationSans-53"/>
     </defs>
     <use xlink:href="#LiberationSans-48"/>
     <use x="55.615234" xlink:href="#LiberationSans-46"/>
     <use x="83.398438" xlink:href="#LiberationSans-50"/>
     <use x="139.013672" xlink:href="#LiberationSans-53"/>
    </g>
   </g>
   <g id="text_21">
    <!-- 0.24 -->
    <g style="fill:#262626;" transform="translate(158.862366 290.758723)scale(0.08 -0.08)">
     <use xlink:href="#LiberationSans-48"/>
     <use x="55.615234" xlink:href="#LiberationSans-46"/>
     <use x="83.398438" xlink:href="#LiberationSans-50"/>
     <use x="139.013672" xlink:href="#LiberationSans-52"/>
    </g>
   </g>
   <g id="text_22">
    <!-- 0.23 -->
    <g style="fill:#262626;" transform="translate(221.33309 291.947976)scale(0.08 -0.08)">
     <defs>
      <path d="M 51.21875 19 
Q 51.21875 9.46875 45.15625 4.234375 
Q 39.109375 -0.984375 27.875 -0.984375 
Q 17.4375 -0.984375 11.203125 3.734375 
Q 4.984375 8.453125 3.8125 17.671875 
L 12.890625 18.5 
Q 14.65625 6.296875 27.875 6.296875 
Q 34.515625 6.296875 38.296875 9.5625 
Q 42.09375 12.84375 42.09375 19.28125 
Q 42.09375 24.90625 37.765625 28.046875 
Q 33.453125 31.203125 25.296875 31.203125 
L 20.3125 31.203125 
L 20.3125 38.8125 
L 25.09375 38.8125 
Q 32.328125 38.8125 36.296875 41.96875 
Q 40.28125 45.125 40.28125 50.6875 
Q 40.28125 56.203125 37.03125 59.390625 
Q 33.796875 62.59375 27.390625 62.59375 
Q 21.578125 62.59375 17.984375 59.609375 
Q 14.40625 56.640625 13.8125 51.21875 
L 4.984375 51.90625 
Q 5.953125 60.359375 11.984375 65.09375 
Q 18.015625 69.828125 27.484375 69.828125 
Q 37.84375 69.828125 43.578125 65.015625 
Q 49.3125 60.203125 49.3125 51.609375 
Q 49.3125 45.015625 45.625 40.890625 
Q 41.9375 36.765625 34.90625 35.296875 
L 34.90625 35.109375 
Q 42.625 34.28125 46.921875 29.9375 
Q 51.21875 25.59375 51.21875 19 
z
" id="LiberationSans-51"/>
     </defs>
     <use xlink:href="#LiberationSans-48"/>
     <use x="55.615234" xlink:href="#LiberationSans-46"/>
     <use x="83.398438" xlink:href="#LiberationSans-50"/>
     <use x="139.013672" xlink:href="#LiberationSans-51"/>
    </g>
   </g>
   <g id="text_23">
    <!-- 0.96 -->
    <g style="fill:#262626;" transform="translate(283.803815 76.850311)scale(0.08 -0.08)">
     <defs>
      <path d="M 50.875 35.796875 
Q 50.875 18.0625 44.40625 8.53125 
Q 37.9375 -0.984375 25.984375 -0.984375 
Q 17.921875 -0.984375 13.0625 2.40625 
Q 8.203125 5.8125 6.109375 13.375 
L 14.5 14.703125 
Q 17.140625 6.109375 26.125 6.109375 
Q 33.6875 6.109375 37.84375 13.140625 
Q 42 20.171875 42.1875 33.203125 
Q 40.234375 28.8125 35.5 26.140625 
Q 30.765625 23.484375 25.09375 23.484375 
Q 15.828125 23.484375 10.25 29.828125 
Q 4.6875 36.1875 4.6875 46.6875 
Q 4.6875 57.46875 10.734375 63.640625 
Q 16.796875 69.828125 27.59375 69.828125 
Q 39.0625 69.828125 44.96875 61.328125 
Q 50.875 52.828125 50.875 35.796875 
z
M 41.3125 44.28125 
Q 41.3125 52.59375 37.5 57.640625 
Q 33.6875 62.703125 27.296875 62.703125 
Q 20.953125 62.703125 17.28125 58.375 
Q 13.625 54.046875 13.625 46.6875 
Q 13.625 39.15625 17.28125 34.78125 
Q 20.953125 30.421875 27.203125 30.421875 
Q 31 30.421875 34.265625 32.15625 
Q 37.546875 33.890625 39.421875 37.0625 
Q 41.3125 40.234375 41.3125 44.28125 
z
" id="LiberationSans-57"/>
     </defs>
     <use xlink:href="#LiberationSans-48"/>
     <use x="55.615234" xlink:href="#LiberationSans-46"/>
     <use x="83.398438" xlink:href="#LiberationSans-57"/>
     <use x="139.013672" xlink:href="#LiberationSans-54"/>
    </g>
   </g>
   <g id="text_24">
    <!-- 0.02 -->
    <g style="fill:#262626;" transform="translate(346.274539 356.581363)scale(0.08 -0.08)">
     <use xlink:href="#LiberationSans-48"/>
     <use x="55.615234" xlink:href="#LiberationSans-46"/>
     <use x="83.398438" xlink:href="#LiberationSans-48"/>
     <use x="139.013672" xlink:href="#LiberationSans-50"/>
    </g>
   </g>
   <g id="text_25">
    <!-- 0.01 -->
    <g style="fill:#262626;" transform="translate(408.745263 357.879231)scale(0.08 -0.08)">
     <use xlink:href="#LiberationSans-48"/>
     <use x="55.615234" xlink:href="#LiberationSans-46"/>
     <use x="83.398438" xlink:href="#LiberationSans-48"/>
     <use x="139.013672" xlink:href="#LiberationSans-49"/>
    </g>
   </g>
   <g id="text_26">
    <!-- 1.06 -->
    <g style="fill:#262626;" transform="translate(471.215987 46.491048)scale(0.08 -0.08)">
     <use xlink:href="#LiberationSans-49"/>
     <use x="55.615234" xlink:href="#LiberationSans-46"/>
     <use x="83.398438" xlink:href="#LiberationSans-48"/>
     <use x="139.013672" xlink:href="#LiberationSans-54"/>
    </g>
   </g>
   <g id="text_27">
    <!-- 0.19 -->
    <g style="fill:#262626;" transform="translate(533.686711 305.815175)scale(0.08 -0.08)">
     <use xlink:href="#LiberationSans-48"/>
     <use x="55.615234" xlink:href="#LiberationSans-46"/>
     <use x="83.398438" xlink:href="#LiberationSans-49"/>
     <use x="139.013672" xlink:href="#LiberationSans-57"/>
    </g>
   </g>
   <g id="text_28">
    <!-- 0.34 -->
    <g style="fill:#262626;" transform="translate(596.157435 259.030473)scale(0.08 -0.08)">
     <use xlink:href="#LiberationSans-48"/>
     <use x="55.615234" xlink:href="#LiberationSans-46"/>
     <use x="83.398438" xlink:href="#LiberationSans-51"/>
     <use x="139.013672" xlink:href="#LiberationSans-52"/>
    </g>
   </g>
   <g id="text_29">
    <!-- 0.54 -->
    <g style="fill:#262626;" transform="translate(658.62816 201.487521)scale(0.08 -0.08)">
     <use xlink:href="#LiberationSans-48"/>
     <use x="55.615234" xlink:href="#LiberationSans-46"/>
     <use x="83.398438" xlink:href="#LiberationSans-53"/>
     <use x="139.013672" xlink:href="#LiberationSans-52"/>
    </g>
   </g>
   <g id="text_30">
    <!-- 0.01 -->
    <g style="fill:#262626;" transform="translate(721.098884 356.796311)scale(0.08 -0.08)">
     <use xlink:href="#LiberationSans-48"/>
     <use x="55.615234" xlink:href="#LiberationSans-46"/>
     <use x="83.398438" xlink:href="#LiberationSans-48"/>
     <use x="139.013672" xlink:href="#LiberationSans-49"/>
    </g>
   </g>
   <g id="text_31">
    <!-- 0.01 -->
    <g style="fill:#262626;" transform="translate(783.569608 358.500679)scale(0.08 -0.08)">
     <use xlink:href="#LiberationSans-48"/>
     <use x="55.615234" xlink:href="#LiberationSans-46"/>
     <use x="83.398438" xlink:href="#LiberationSans-48"/>
     <use x="139.013672" xlink:href="#LiberationSans-49"/>
    </g>
   </g>
   <g id="text_32">
    <!-- Average Kernel Execution Time (with std) -->
    <g style="fill:#262626;" transform="translate(337.827187 19.44)scale(0.12 -0.12)">
     <defs>
      <path d="M 56.984375 0 
L 49.125 20.125 
L 17.78125 20.125 
L 9.859375 0 
L 0.203125 0 
L 28.265625 68.796875 
L 38.875 68.796875 
L 66.5 0 
z
M 33.453125 61.765625 
L 33.015625 60.40625 
Q 31.78125 56.34375 29.390625 50 
L 20.609375 27.390625 
L 46.34375 27.390625 
L 37.5 50.09375 
Q 36.140625 53.46875 34.765625 57.71875 
z
" id="LiberationSans-65"/>
      <path d="M 29.9375 0 
L 19.53125 0 
L 0.34375 52.828125 
L 9.71875 52.828125 
L 21.34375 18.453125 
Q 21.96875 16.5 24.703125 6.890625 
L 26.421875 12.59375 
L 28.328125 18.359375 
L 40.328125 52.828125 
L 49.65625 52.828125 
z
" id="LiberationSans-118"/>
      <path d="M 54 0 
L 26.515625 33.203125 
L 17.53125 26.375 
L 17.53125 0 
L 8.203125 0 
L 8.203125 68.796875 
L 17.53125 68.796875 
L 17.53125 34.328125 
L 50.6875 68.796875 
L 61.671875 68.796875 
L 32.375 38.921875 
L 65.578125 0 
z
" id="LiberationSans-75"/>
      <path d="M 40.28125 0 
L 40.28125 33.5 
Q 40.28125 38.71875 39.25 41.59375 
Q 38.234375 44.484375 35.984375 45.75 
Q 33.734375 47.015625 29.390625 47.015625 
Q 23.046875 47.015625 19.375 42.671875 
Q 15.71875 38.328125 15.71875 30.609375 
L 15.71875 0 
L 6.9375 0 
L 6.9375 41.546875 
Q 6.9375 50.78125 6.640625 52.828125 
L 14.9375 52.828125 
Q 14.984375 52.59375 15.03125 51.515625 
Q 15.09375 50.4375 15.15625 49.046875 
Q 15.234375 47.65625 15.328125 43.796875 
L 15.484375 43.796875 
Q 18.5 49.265625 22.484375 51.53125 
Q 26.46875 53.8125 32.375 53.8125 
Q 41.0625 53.8125 45.09375 49.484375 
Q 49.125 45.171875 49.125 35.203125 
L 49.125 0 
z
" id="LiberationSans-110"/>
      <path d="M 8.203125 0 
L 8.203125 68.796875 
L 60.40625 68.796875 
L 60.40625 61.1875 
L 17.53125 61.1875 
L 17.53125 39.109375 
L 57.46875 39.109375 
L 57.46875 31.59375 
L 17.53125 31.59375 
L 17.53125 7.625 
L 62.40625 7.625 
L 62.40625 0 
z
" id="LiberationSans-69"/>
      <path d="M 39.109375 0 
L 24.90625 21.6875 
L 10.59375 0 
L 1.125 0 
L 19.921875 27.15625 
L 2 52.828125 
L 11.71875 52.828125 
L 24.90625 32.28125 
L 37.984375 52.828125 
L 47.796875 52.828125 
L 29.890625 27.25 
L 48.921875 0 
z
" id="LiberationSans-120"/>
      <path d="M 13.421875 26.65625 
Q 13.421875 16.109375 16.734375 11.03125 
Q 20.0625 5.953125 26.765625 5.953125 
Q 31.453125 5.953125 34.59375 8.484375 
Q 37.75 11.03125 38.484375 16.3125 
L 47.359375 15.71875 
Q 46.34375 8.109375 40.875 3.5625 
Q 35.40625 -0.984375 27 -0.984375 
Q 15.921875 -0.984375 10.078125 6.015625 
Q 4.25 13.03125 4.25 26.46875 
Q 4.25 39.796875 10.109375 46.796875 
Q 15.96875 53.8125 26.90625 53.8125 
Q 35.015625 53.8125 40.359375 49.609375 
Q 45.703125 45.40625 47.078125 38.03125 
L 38.03125 37.359375 
Q 37.359375 41.75 34.5625 44.328125 
Q 31.78125 46.921875 26.65625 46.921875 
Q 19.671875 46.921875 16.546875 42.28125 
Q 13.421875 37.640625 13.421875 26.65625 
z
" id="LiberationSans-99"/>
      <path d="M 51.421875 26.46875 
Q 51.421875 12.59375 45.3125 5.796875 
Q 39.203125 -0.984375 27.59375 -0.984375 
Q 16.015625 -0.984375 10.109375 6.078125 
Q 4.203125 13.140625 4.203125 26.46875 
Q 4.203125 53.8125 27.875 53.8125 
Q 39.984375 53.8125 45.703125 47.140625 
Q 51.421875 40.484375 51.421875 26.46875 
z
M 42.1875 26.46875 
Q 42.1875 37.40625 38.9375 42.359375 
Q 35.6875 47.3125 28.03125 47.3125 
Q 20.3125 47.3125 16.859375 42.25 
Q 13.421875 37.203125 13.421875 26.46875 
Q 13.421875 16.015625 16.8125 10.765625 
Q 20.21875 5.515625 27.484375 5.515625 
Q 35.40625 5.515625 38.796875 10.59375 
Q 42.1875 15.671875 42.1875 26.46875 
z
" id="LiberationSans-111"/>
      <path d="M 57.328125 0 
L 47.125 0 
L 37.890625 37.359375 
L 36.140625 45.609375 
Q 35.6875 43.40625 34.765625 39.28125 
Q 33.84375 35.15625 24.8125 0 
L 14.65625 0 
L -0.140625 52.828125 
L 8.546875 52.828125 
L 17.484375 16.9375 
Q 17.828125 15.765625 19.578125 7.28125 
L 20.40625 10.890625 
L 31.453125 52.828125 
L 40.875 52.828125 
L 50.09375 16.546875 
L 52.34375 7.28125 
L 53.859375 14.0625 
L 63.875 52.828125 
L 72.46875 52.828125 
z
" id="LiberationSans-119"/>
      <path d="M 15.484375 43.796875 
Q 18.3125 48.96875 22.28125 51.390625 
Q 26.265625 53.8125 32.375 53.8125 
Q 40.96875 53.8125 45.046875 49.53125 
Q 49.125 45.265625 49.125 35.203125 
L 49.125 0 
L 40.28125 0 
L 40.28125 33.5 
Q 40.28125 39.0625 39.25 41.765625 
Q 38.234375 44.484375 35.890625 45.75 
Q 33.546875 47.015625 29.390625 47.015625 
Q 23.1875 47.015625 19.453125 42.71875 
Q 15.71875 38.421875 15.71875 31.15625 
L 15.71875 0 
L 6.9375 0 
L 6.9375 72.46875 
L 15.71875 72.46875 
L 15.71875 53.609375 
Q 15.71875 50.640625 15.546875 47.453125 
Q 15.375 44.28125 15.328125 43.796875 
z
" id="LiberationSans-104"/>
     </defs>
     <use xlink:href="#LiberationSans-65"/>
     <use x="64.949219" xlink:href="#LiberationSans-118"/>
     <use x="114.949219" xlink:href="#LiberationSans-101"/>
     <use x="170.564453" xlink:href="#LiberationSans-114"/>
     <use x="203.865234" xlink:href="#LiberationSans-97"/>
     <use x="259.480469" xlink:href="#LiberationSans-103"/>
     <use x="315.095703" xlink:href="#LiberationSans-101"/>
     <use x="370.710938" xlink:href="#LiberationSans-32"/>
     <use x="398.494141" xlink:href="#LiberationSans-75"/>
     <use x="465.193359" xlink:href="#LiberationSans-101"/>
     <use x="520.808594" xlink:href="#LiberationSans-114"/>
     <use x="554.109375" xlink:href="#LiberationSans-110"/>
     <use x="609.724609" xlink:href="#LiberationSans-101"/>
     <use x="665.339844" xlink:href="#LiberationSans-108"/>
     <use x="687.556641" xlink:href="#LiberationSans-32"/>
     <use x="715.339844" xlink:href="#LiberationSans-69"/>
     <use x="782.039062" xlink:href="#LiberationSans-120"/>
     <use x="832.039062" xlink:href="#LiberationSans-101"/>
     <use x="887.654297" xlink:href="#LiberationSans-99"/>
     <use x="937.654297" xlink:href="#LiberationSans-117"/>
     <use x="993.269531" xlink:href="#LiberationSans-116"/>
     <use x="1021.052734" xlink:href="#LiberationSans-105"/>
     <use x="1043.269531" xlink:href="#LiberationSans-111"/>
     <use x="1098.884766" xlink:href="#LiberationSans-110"/>
     <use x="1154.5" xlink:href="#LiberationSans-32"/>
     <use x="1180.533203" xlink:href="#LiberationSans-84"/>
     <use x="1237.867188" xlink:href="#LiberationSans-105"/>
     <use x="1260.083984" xlink:href="#LiberationSans-109"/>
     <use x="1343.384766" xlink:href="#LiberationSans-101"/>
     <use x="1399" xlink:href="#LiberationSans-32"/>
     <use x="1426.783203" xlink:href="#LiberationSans-40"/>
     <use x="1460.083984" xlink:href="#LiberationSans-119"/>
     <use x="1532.300781" xlink:href="#LiberationSans-105"/>
     <use x="1554.517578" xlink:href="#LiberationSans-116"/>
     <use x="1582.300781" xlink:href="#LiberationSans-104"/>
     <use x="1637.916016" xlink:href="#LiberationSans-32"/>
     <use x="1665.699219" xlink:href="#LiberationSans-115"/>
     <use x="1715.699219" xlink:href="#LiberationSans-116"/>
     <use x="1743.482422" xlink:href="#LiberationSans-100"/>
     <use x="1799.097656" xlink:href="#LiberationSans-41"/>
    </g>
   </g>
  </g>
 </g>
 <defs>
  <clipPath id="p79ef61213f">
   <rect height="357.830971" width="810.87" x="42.33" y="25.44"/>
  </clipPath>
 </defs>
</svg>
